<svg viewBox="0 0 232 64" fill="none" xmlns="http://www.w3.org/2000/svg">
  <defs>
    <linearGradient id="tt-light-g" x1="118" y1="232" x2="168" y2="30" gradientUnits="userSpaceOnUse">
      <stop offset="0" stop-color="#0A8E7A"/>
      <stop offset="1" stop-color="#23CE92"/>
    </linearGradient>
  </defs>
  <g transform="translate(-15.481 -2.462) scale(0.26923)">
  <g transform="translate(-9.5 -3.0)">
    <path d="M128 168 C128 136 78 142 78 106 L78 100" fill="none" stroke="#AFC4BB" stroke-width="18" stroke-linecap="round"/>
    <circle cx="78" cy="77" r="11" fill="none" stroke="#AFC4BB" stroke-width="10"/>
    <path d="M160 118 C160 98 198 102 198 80 L198 78" fill="none" stroke="#AFC4BB" stroke-width="18" stroke-linecap="round"/>
    <circle cx="198" cy="56" r="10" fill="none" stroke="#AFC4BB" stroke-width="10"/>
    <path d="M128 206 L128 168 C128 140 160 144 160 118 L160 64" fill="none" stroke="url(#tt-light-g)" stroke-width="22" stroke-linecap="round"/>
    <circle cx="160" cy="42" r="15" fill="#23CE92"/>
    <circle cx="128" cy="220" r="15" fill="url(#tt-light-g)"/>
  </g>
  </g>
  <path transform="translate(53.96 45.00) scale(37.1429)" fill="#0E1A16" d="M0.2375189208984375 0.0V-0.5973580322265625H0.025119873046875V-0.7000000000000001H0.5628801269531251V-0.5973580322265625H0.3504810791015625V0.0Z"/>
  <path transform="translate(53.96 45.00) scale(37.1429)" fill="#0E1A16" d="M0.6020394287109375 0.0V-0.4932003173828125H0.7075615234375V-0.43580047607421873H0.7238817138671876Q0.7357216186523438 -0.46664038085937504 0.7617815551757813 -0.48092034912109377Q0.7878414916992188 -0.4952003173828125 0.826041015625 -0.4952003173828125H0.8852011108398438V-0.39887854003906253H0.8226411743164063Q0.7726813964843751 -0.39887854003906253 0.7411214599609375 -0.3718387145996094Q0.7095615234375 -0.3447988891601563 0.7095615234375 -0.2881593017578125V0.0Z"/>
  <path transform="translate(53.96 45.00) scale(37.1429)" fill="#0E1A16" d="M1.2074794921875 0.014Q1.1331995239257813 0.014 1.0769794921875 -0.0175Q1.0207594604492187 -0.049 0.9893994445800781 -0.10636001586914062Q0.9580394287109375 -0.16372003173828126 0.9580394287109375 -0.24060015869140625V-0.25260015869140623Q0.9580394287109375 -0.32976025390625 0.9890394287109375 -0.38698028564453124Q1.0200394287109376 -0.4442003173828125 1.0756194763183595 -0.4757003173828125Q1.1311995239257813 -0.5072003173828125 1.2040796508789062 -0.5072003173828125Q1.2756798095703126 -0.5072003173828125 1.3292598571777345 -0.4758201904296875Q1.3828399047851563 -0.4444400634765625 1.4128399047851563 -0.3880599365234375Q1.4428399047851563 -0.3316798095703125 1.4428399047851563 -0.25623974609375V-0.21631939697265626H1.0670015869140625Q1.0692815551757813 -0.15412066650390624 1.1099010314941407 -0.11722122192382811Q1.1505205078125 -0.08032177734375 1.210359619140625 -0.08032177734375Q1.2675591430664062 -0.08032177734375 1.2960587463378905 -0.1055615234375Q1.324558349609375 -0.13080126953125001 1.3395181274414063 -0.16356072998046875L1.4287996826171876 -0.11795977783203125Q1.4145197143554689 -0.09 1.388019714355469 -0.05922003173828125Q1.361519714355469 -0.0284400634765625 1.3180796508789063 -0.0072200317382812495Q1.2746395874023437 0.014 1.2074794921875 0.014ZM1.0680015869140624 -0.29856072998046873H1.3335977783203126Q1.3295977783203126 -0.35163958740234375 1.294478302001953 -0.3822590637207031Q1.2593588256835937 -0.4128785400390625 1.203359619140625 -0.4128785400390625Q1.1462003173828126 -0.4128785400390625 1.1111608886718751 -0.3822590637207031Q1.0761214599609374 -0.35163958740234375 1.0680015869140624 -0.29856072998046873Z"/>
  <path transform="translate(53.96 45.00) scale(37.1429)" fill="#0E1A16" d="M1.8004794921875 0.014Q1.7261995239257812 0.014 1.6699794921875 -0.0175Q1.6137594604492187 -0.049 1.5823994445800782 -0.10636001586914062Q1.5510394287109375 -0.16372003173828126 1.5510394287109375 -0.24060015869140625V-0.25260015869140623Q1.5510394287109375 -0.32976025390625 1.5820394287109374 -0.38698028564453124Q1.6130394287109375 -0.4442003173828125 1.6686194763183595 -0.4757003173828125Q1.7241995239257812 -0.5072003173828125 1.7970796508789062 -0.5072003173828125Q1.8686798095703125 -0.5072003173828125 1.9222598571777345 -0.4758201904296875Q1.9758399047851563 -0.4444400634765625 2.005839904785156 -0.3880599365234375Q2.0358399047851563 -0.3316798095703125 2.0358399047851563 -0.25623974609375V-0.21631939697265626H1.6600015869140625Q1.6622815551757812 -0.15412066650390624 1.7029010314941406 -0.11722122192382811Q1.7435205078125 -0.08032177734375 1.803359619140625 -0.08032177734375Q1.8605591430664061 -0.08032177734375 1.8890587463378905 -0.1055615234375Q1.9175583496093749 -0.13080126953125001 1.9325181274414063 -0.16356072998046875L2.0217996826171873 -0.11795977783203125Q2.007519714355469 -0.09 1.9810197143554689 -0.05922003173828125Q1.954519714355469 -0.0284400634765625 1.9110796508789063 -0.0072200317382812495Q1.8676395874023437 0.014 1.8004794921875 0.014ZM1.6610015869140624 -0.29856072998046873H1.9265977783203125Q1.9225977783203125 -0.35163958740234375 1.887478302001953 -0.3822590637207031Q1.8523588256835937 -0.4128785400390625 1.796359619140625 -0.4128785400390625Q1.7392003173828126 -0.4128785400390625 1.704160888671875 -0.3822590637207031Q1.6691214599609374 -0.35163958740234375 1.6610015869140624 -0.29856072998046873Z"/>
  <path transform="translate(53.96 45.00) scale(37.1429)" fill="#0E1A16" d="M2.3305189208984376 0.0V-0.5973580322265625H2.118119873046875V-0.7000000000000001H2.655880126953125V-0.5973580322265625H2.4434810791015624V0.0Z"/>
  <path transform="translate(53.96 45.00) scale(37.1429)" fill="#0E1A16" d="M2.6950394287109374 0.0V-0.4932003173828125H2.8005615234375V-0.43580047607421873H2.8168817138671876Q2.828721618652344 -0.46664038085937504 2.8547815551757814 -0.48092034912109377Q2.880841491699219 -0.4952003173828125 2.919041015625 -0.4952003173828125H2.978201110839844V-0.39887854003906253H2.9156411743164066Q2.865681396484375 -0.39887854003906253 2.8341214599609375 -0.3718387145996094Q2.8025615234375003 -0.3447988891601563 2.8025615234375003 -0.2881593017578125V0.0Z"/>
  <path transform="translate(53.96 45.00) scale(37.1429)" fill="#0E1A16" d="M3.2316395874023436 0.014Q3.179199523925781 0.014 3.1373395080566406 -0.00422003173828125Q3.0954794921875 -0.0224400634765625 3.0711194763183594 -0.057520111083984374Q3.046759460449219 -0.09260015869140625 3.046759460449219 -0.14276025390625Q3.046759460449219 -0.19320031738281251 3.0711194763183594 -0.22700039672851563Q3.0954794921875 -0.26080047607421875 3.1382795715332032 -0.2778805236816406Q3.1810796508789063 -0.2949605712890625 3.2353998413085936 -0.2949605712890625H3.3831585083007814V-0.32604022216796874Q3.3831585083007814 -0.36775946044921876 3.357798889160156 -0.39319912719726563Q3.332439270019531 -0.4186387939453125 3.2796798095703124 -0.4186387939453125Q3.227920349121094 -0.4186387939453125 3.200860809326172 -0.39433911132812505Q3.17380126953125 -0.37003942871093753 3.1651214599609374 -0.33072003173828124L3.065359619140625 -0.36356072998046873Q3.077359619140625 -0.4029605712890625 3.1037196350097656 -0.43530047607421873Q3.130079650878906 -0.467640380859375 3.174159698486328 -0.4874203491210937Q3.21823974609375 -0.5072003173828125 3.281119873046875 -0.5072003173828125Q3.3774400634765627 -0.5072003173828125 3.4326202697753905 -0.45848028564453125Q3.4878004760742187 -0.40976025390625 3.4878004760742187 -0.3187200317382813V-0.119441650390625Q3.4878004760742187 -0.089441650390625 3.5158004760742188 -0.089441650390625H3.55776025390625V0.0H3.479359619140625Q3.4440394287109375 0.0 3.4217192382812502 -0.018139984130859377Q3.3993990478515625 -0.036279968261718754 3.3993990478515625 -0.06683990478515625V-0.06951971435546875H3.3829187622070314Q3.3763990478515624 -0.05472003173828125 3.3605792541503905 -0.034800079345703124Q3.3447594604492186 -0.014880126953125 3.3139195556640626 -0.0004400634765624996Q3.283079650878906 0.014 3.2316395874023436 0.014ZM3.2486001586914064 -0.0745615234375Q3.308319396972656 -0.0745615234375 3.3457389526367187 -0.10882098388671875Q3.3831585083007814 -0.1430804443359375 3.3831585083007814 -0.2021593017578125V-0.21271923828125H3.2421600952148437Q3.202400634765625 -0.21271923828125 3.178341094970703 -0.19561947631835938Q3.1542815551757815 -0.17851971435546876 3.1542815551757815 -0.14592034912109375Q3.1542815551757815 -0.11332098388671875 3.1793410949707033 -0.09394125366210937Q3.204400634765625 -0.0745615234375 3.2486001586914064 -0.0745615234375Z"/>
  <path transform="translate(53.96 45.00) scale(37.1429)" fill="#0E1A16" d="M3.8849597778320315 0.014Q3.81323974609375 0.014 3.7555796508789063 -0.016139984130859375Q3.6979195556640625 -0.04627996826171875 3.6644794921875 -0.10327996826171876Q3.6310394287109378 -0.16027996826171875 3.6310394287109378 -0.24016009521484374V-0.25304022216796873Q3.6310394287109378 -0.3332003173828125 3.6644794921875 -0.3900603332519531Q3.6979195556640625 -0.44692034912109374 3.7555796508789063 -0.4770603332519531Q3.81323974609375 -0.5072003173828125 3.8849597778320315 -0.5072003173828125Q3.9556798095703125 -0.5072003173828125 4.005979888916015 -0.48178036499023436Q4.056279968261719 -0.45636041259765625 4.086660095214844 -0.413140380859375Q4.117040222167969 -0.3699203491210938 4.126200317382812 -0.31716009521484373L4.021838317871094 -0.29507965087890625Q4.017558349609375 -0.327599365234375 4.001878540039063 -0.35397909545898437Q3.9861987304687503 -0.38035882568359375 3.957759063720703 -0.3958986511230469Q3.929319396972656 -0.4114384765625 3.887119873046875 -0.4114384765625Q3.844920349121094 -0.4114384765625 3.811200714111328 -0.39269873046875003Q3.7774810791015625 -0.373958984375 3.7580213012695314 -0.338099365234375Q3.7385615234375003 -0.30223974609375 3.7385615234375003 -0.2513201904296875V-0.241880126953125Q3.7385615234375003 -0.1909605712890625 3.7580213012695314 -0.1551009521484375Q3.7774810791015625 -0.1192413330078125 3.811200714111328 -0.1005015869140625Q3.844920349121094 -0.0817618408203125 3.887119873046875 -0.0817618408203125Q3.9505591430664064 -0.0817618408203125 3.9835587463378905 -0.1146214599609375Q4.016558349609375 -0.1474810791015625 4.0251182861328125 -0.1988406982421875L4.129480285644531 -0.17460015869140624Q4.117600158691406 -0.12327996826171875 4.086940063476563 -0.0800599365234375Q4.056279968261719 -0.03683990478515625 4.005979888916015 -0.011419952392578127Q3.9556798095703125 0.014 3.8849597778320315 0.014Z"/>
  <path transform="translate(53.96 45.00) scale(37.1429)" fill="#0E1A16" d="M4.4814794921875 0.014Q4.407199523925781 0.014 4.3509794921875 -0.0175Q4.294759460449219 -0.049 4.263399444580078 -0.10636001586914062Q4.232039428710937 -0.16372003173828126 4.232039428710937 -0.24060015869140625V-0.25260015869140623Q4.232039428710937 -0.32976025390625 4.263039428710938 -0.38698028564453124Q4.294039428710938 -0.4442003173828125 4.3496194763183595 -0.4757003173828125Q4.4051995239257815 -0.5072003173828125 4.4780796508789065 -0.5072003173828125Q4.549679809570312 -0.5072003173828125 4.603259857177735 -0.4758201904296875Q4.656839904785157 -0.4444400634765625 4.686839904785156 -0.3880599365234375Q4.716839904785156 -0.3316798095703125 4.716839904785156 -0.25623974609375V-0.21631939697265626H4.341001586914063Q4.343281555175781 -0.15412066650390624 4.3839010314941405 -0.11722122192382811Q4.4245205078125 -0.08032177734375 4.484359619140625 -0.08032177734375Q4.541559143066406 -0.08032177734375 4.5700587463378906 -0.1055615234375Q4.598558349609375 -0.13080126953125001 4.613518127441406 -0.16356072998046875L4.702799682617187 -0.11795977783203125Q4.688519714355468 -0.09 4.662019714355468 -0.05922003173828125Q4.6355197143554685 -0.0284400634765625 4.592079650878906 -0.0072200317382812495Q4.548639587402344 0.014 4.4814794921875 0.014ZM4.342001586914063 -0.29856072998046873H4.607597778320312Q4.603597778320313 -0.35163958740234375 4.568478302001953 -0.3822590637207031Q4.533358825683594 -0.4128785400390625 4.477359619140625 -0.4128785400390625Q4.420200317382813 -0.4128785400390625 4.385160888671875 -0.3822590637207031Q4.3501214599609375 -0.35163958740234375 4.342001586914063 -0.29856072998046873Z"/>
</svg>
